PathFileType	4	(X/Y/Z)	C:/Users/beibeiliu/ov580/test_trc\sequence.37_training_dense_left.trc
DataRate	CameraRate	NumFrames	NumMarkers	Units	OrigDataRate	OrigDataStartFrame	OrigNumFrames
120	120	14	19	mm	120	1	152
Frame#	Time	ThumbCMC			ThumbMCP			ThumbIP			ThumbTip			IndexMCP			IndexPIP			IndexTip			MiddleMCP			MiddlePIP			MiddleTip			RingMCP			RingPIP			RingTip			PinkyMCP			PinkyPIP			PinkyTip			BackHand1			BackHand2			BackHand3	
		X0	Y0	Z0	X1	Y1	Z1	X2	Y2	Z2	X3	Y3	Z3	X4	Y4	Z4	X5	Y5	Z5	X6	Y6	Z6	X7	Y7	Z7	X8	Y8	Z8	X9	Y9	Z9	X10	Y10	Z10	X11	Y11	Z11	X12	Y12	Z12	X13	Y13	Z13	X14	Y14	Z14	X15	Y15	Z15	X16	Y16	Z16	X17	Y17	Z17	X18	Y18	Z18	
0	0	-242.544	7.67795	50.8374	-253.318	17.0095	28.1302	-263.949	17.8213	6.51425	-268.82	21.4846	-16.9372	-223.643	6.0115	-16.3573	-227.322	19.079	-37.1158	-230.872	42.9153	-55.4438	-204.885	15.9183	-20.0084	-207.495	42.614	-34.1653	-215.874	66.166	-13.7255	-184.299	12.0719	-13.109	-180.276	20.8584	-32.6096	-181.258	39.2561	-49.3158	-163.39	17.0508	10.1007	-154.059	17.728	-1.25466	-141.687	14.1748	-18.3925	-189.481	-1.40785	30.3461	-191.627	-4.36882	61.1823	-214.551	-9.89143	41.4482	
1	0.00833333	-236.083	4.60484	50.2005	-249.135	8.46965	27.8768	-253.28	8.43702	6.86032	-262.519	9.08509	-15.7313	-217.53	4.56432	-16.7668	-220.129	21.7093	-38.5174	-223.928	46.8022	-49.5729	-199.897	14.5922	-20.7501	-202.509	38.0426	-32.5348	-211.34	62.1788	-9.17695	-174.722	10.1411	-8.19658	-175.46	19.0105	-30.9985	-176.978	40.9911	-50.5699	-162.949	14.8728	14.2137	-145.03	14.7507	-2.3588	-134.59	12.0612	-13.5485	-183.096	-1.74711	36.2783	-187.969	-7.13094	60.3544	-210.618	-11.346	41.1881	
2	0.0166667	-231.063	2.55127	52.4082	-241.345	3.59076	30.506	-248.805	-1.91699	3.72914	-253.275	-1.99036	-11.1473	-215.353	4.6952	-19.8797	-212.849	20.5997	-35.1224	-220.78	43.8416	-45.3814	-190.933	11.9598	-16.5504	-196.674	38.5231	-29.2962	-209.037	58.2669	-7.48362	-173.693	7.69884	-6.38065	-169.043	21.8404	-32.7754	-170.45	41.2237	-47.1286	-155.245	12.697	15.8247	-140.882	14.1945	0.948416	-130.552	13.1042	-13.8535	-176.788	-3.87271	37.2929	-184.056	-7.00816	61.2883	-204.02	-12.588	44.9915	
3	0.025	-226.251	-0.195092	46.1823	-231.79	0.969364	25.6946	-237.457	-4.32837	3.57598	-243.405	-6.00264	-12.8084	-202.715	6.1244	-19.6392	-205.616	23.9326	-38.6443	-203.927	44.9096	-44.3001	-184.709	13.0121	-15.4466	-189.242	43.8224	-24.9794	-200.293	57.7068	0.595838	-165.279	9.72876	-9.1378	-160.432	24.9443	-30.5985	-164.047	40.8731	-43.0993	-152.309	12.5648	14.7137	-136.932	12.011	-0.69782	-122.681	11.689	-13.12	-171.309	-3.41789	34.2493	-174.265	-6.87787	60.7455	-198.339	-13.5453	40.9508	
4	0.0333333	-216.392	5.07963	45.8353	-223.912	4.82715	18.4215	-229.72	2.36784	-2.20768	-232.025	1.52793	-22.7665	-193.489	6.08143	-20.6933	-189.228	21.24	-38.4819	-190.415	43.0918	-52.357	-175.826	21.4579	-21.1053	-182.579	50.8293	-20.5783	-193.286	60.2906	3.25561	-152.134	16.609	-7.53378	-152.047	33.1842	-30.9784	-154.569	55.2687	-39.891	-137.623	15.4471	15.227	-129.935	15.0448	-1.0571	-113.683	15.3646	-14.115	-162.861	-3.94966	33.6072	-173.381	-8.37689	56.3018	-190.922	-10.7754	37.7438	
5	0.0416667	-211.215	9.42975	34.6755	-217.2	15.6506	11.4765	-216.329	17.4129	-13.4764	-217.2	22.7994	-33.5447	-184.217	10.3827	-24.1732	-172.068	26.8029	-43.6718	-171.87	41.7944	-58.9814	-163.704	30.3735	-19.2238	-171.627	57.6671	-20.6288	-184.014	65.3542	7.30407	-143.872	24.5727	-8.33897	-141.201	45.0395	-27.4368	-143.74	64.3847	-34.3051	-132.522	19.1337	13.1305	-123.638	22.0816	0.135552	-106.775	25.6537	-12.6657	-162.071	-1.09314	32.6372	-168.726	-4.89989	54.8367	-189.92	-7.3557	32.422	
6	0.05	-212.601	17.6182	26.5168	-215.142	31.0423	2.77822	-209.395	39.4743	-14.442	-202.683	47.4673	-34.374	-171.897	19.1914	-29.3727	-166.86	28.1998	-45.132	-155.783	42.1625	-61.5681	-156.386	38.6192	-19.8936	-162.667	64.1337	-21.8551	-180.763	74.1367	6.30368	-143.723	29.7573	-8.86824	-135.777	51.1904	-23.4286	-138.123	75.7005	-33.933	-127.429	25.5097	14.555	-114.085	30.3785	-0.303877	-100.859	31.5867	-10.0728	-162.786	5.07724	29.2143	-169.566	-1.84955	52.6531	-186.987	-3.07305	28.6636	
7	0.0583333	-217.194	28.8299	23.6601	-214.125	47.2661	0.646613	-204.393	57.6138	-22.6122	-194.153	68.7602	-36.7789	-171.836	24.6627	-32.5727	-159.895	35.423	-51.012	-146.77	43.7922	-62.3432	-154.466	42.2239	-22.1861	-154.017	68.9202	-21.4141	-175.96	81.5978	3.22223	-142.023	31.3534	-10.9716	-128.022	51.5425	-21.4629	-125.237	71.9817	-29.7058	-127.197	23.4433	12.4901	-117.67	27.6243	2.55305	-98.4096	27.7808	-9.19952	-163.502	6.87279	27.7096	-177.049	1.10872	45.8578	-195.457	3.25958	20.0004	
8	0.0666667	-216.432	44.4826	16.2064	-206.325	62.2661	-4.07918	-193.491	69.9576	-20.2116	-176.392	78.526	-36.4685	-175.142	30.1368	-34.9127	-156.341	38.0315	-52.791	-142.077	47.8017	-68.6918	-155.022	36.923	-24.2624	-141.563	66.462	-20.0454	-155.9	83.0263	0.884252	-142.4	23.6463	-13.6303	-125.193	36.9584	-23.9751	-115.228	57.688	-34.7563	-137.901	12.4455	13.1521	-124.2	13.1297	1.10062	-105.179	9.03148	-9.11973	-175.613	8.02454	20.0823	-191.059	4.5174	42.8812	-203.83	14.6462	15.854	
9	0.075	-212.416	59.8475	14.8444	-197.089	78.9845	-6.99397	-182.785	83.996	-22.1113	-162.729	83.1526	-32.2952	-175.688	37.8946	-39.9132	-157.623	38.1141	-50.8926	-137.911	42.8848	-65.7223	-155.433	35.1743	-29.6532	-134.575	55.6685	-27.5179	-135.883	75.721	-4.2562	-151.216	17.4858	-19.9432	-129.757	20.1281	-25.8018	-111.706	35.2079	-34.7727	-153.463	5.88616	5.62279	-134.454	-1.41024	-4.46145	-120.261	-6.23553	-15.6184	-187.046	10.0937	16.5	-203.231	12.1974	33.0054	-212.789	29.2804	10.3233	
10	0.0833333	-203.44	77.0317	10.5103	-181.863	87.2127	-5.24436	-164.156	87.2359	-21.3112	-145.415	84.4961	-34.7367	-172.742	43.7593	-40.8059	-155.784	42.6562	-54.0641	-132.697	38.8043	-65.7677	-155.881	33.3475	-31.4174	-131.607	43.1905	-28.5283	-120.482	58.7522	-3.58834	-159.347	12.3852	-17.0323	-138.168	12.3577	-27.5306	-114.337	20.9156	-34.7524	-168.055	4.51451	1.18558	-153.921	-7.85953	-9.99109	-140.535	-15.8996	-20.7175	-198.714	20.539	12.1738	-212.357	28.0708	27.4843	-214.587	45.5095	6.16857	
11	0.0916667	-187.97	88.989	16.0621	-162.346	95.421	-1.99604	-146.351	89.1928	-18.3185	-132.655	78.5382	-29.81	-169.416	52.594	-42.0625	-151.81	43.3803	-54.4902	-135.87	34.3021	-62.546	-162.361	35.508	-30.925	-132.233	31.0742	-26.845	-114.527	42.8589	-1.84193	-173.089	18.1397	-19.0401	-151.154	11.5308	-30.0138	-127.612	7.34376	-30.947	-183.845	8.99694	-6.80828	-176.995	-1.85971	-14.1928	-167.644	-19.8624	-25.7482	-206.894	37.1815	7.10079	-218.528	47.9957	27.1181	-207.202	69.4297	3.43136	
12	0.1	-169.669	95.6872	14.872	-146.498	87.9747	2.99214	-129.068	82.9857	-13.598	-117.323	74.0237	-27.8315	-163.53	59.2468	-41.8387	-150.306	46.0017	-52.9168	-138.657	30.94	-59.6531	-165.148	41.2174	-33.2311	-141.686	23.2686	-28.6614	-123.377	19.0616	-8.43848	-185.804	27.3335	-22.0985	-165.009	13.4453	-34.1623	-146.052	0.908088	-33.0449	-201.723	25.8451	-3.67384	-201.114	12.6915	-16.0062	-201.676	-4.77865	-32.6781	-203.941	61.3653	4.11698	-213.488	75.9832	27.6546	-195.945	88.1822	7.36124	
13	0.108333	-153.57	98.113	21.1245	-132.452	83.6623	4.42381	-120.455	73.8236	-12.3727	-110.166	62.5924	-25.6315	-162.959	65.6074	-38.4776	-153.086	48.9067	-50.7828	-141.276	25.6501	-58.9704	-172.401	48.5805	-38.8488	-156.991	25.566	-40.5648	-141.889	8.3217	-26.9043	-193.78	44.4858	-29.3241	-186.765	26.9677	-39.541	-173.648	7.93177	-45.5217	-211.759	46.9493	-12.7041	-219.81	32.8746	-23.7076	-226.217	24.504	-37.927	-200.494	78.3854	3.30963	-205.232	94.3859	24.433	-184.094	103.27	9.31449	
